<?xml version="1.0" encoding="UTF-8" standalone="no"?>
<svg width="528px" height="154px" viewBox="0 0 528 154" version="1.1" xmlns="http://www.w3.org/2000/svg" xmlns:xlink="http://www.w3.org/1999/xlink">
    <!-- Generator: Sketch 3.8.2 (29753) - http://www.bohemiancoding.com/sketch -->
    <title>Button - App Store</title>
    <desc>Created with Sketch.</desc>
    <defs></defs>
    <g id="Page-1" stroke="none" stroke-width="1" fill="none" fill-rule="evenodd">
        <g id="Button---App-Store">
            <rect id="Button" fill="#2B2D32" x="0" y="0" width="528" height="154" rx="19.2000003"></rect>
            <path d="M161.6,68.6960003 C168.224,68.6960003 172.384,63.9600003 172.384,58.0400002 C172.384,52.1840001 168.224,47.352 161.6,47.352 L154.784,47.352 L154.784,68.6960003 L161.6,68.6960003 Z M161.6,67.0320003 L156.608,67.0320003 L156.608,49.016 L161.6,49.016 C167.264,49.016 170.464,53.0480001 170.464,58.0400002 C170.464,63.0320002 167.232,67.0320003 161.6,67.0320003 L161.6,67.0320003 Z M186.496001,69.0800003 C192.736001,69.0800003 196.864001,64.2800003 196.864001,58.0400002 C196.864001,51.8000001 192.736001,47 186.496001,47 C180.224,47 176.128,51.8000001 176.128,58.0400002 C176.128,64.2800003 180.224,69.0800003 186.496001,69.0800003 L186.496001,69.0800003 Z M186.496001,67.4160003 C181.344,67.4160003 178.048,63.4160002 178.048,58.0400002 C178.048,52.6320001 181.344,48.664 186.496001,48.664 C191.616001,48.664 194.944001,52.6320001 194.944001,58.0400002 C194.944001,63.4160002 191.616001,67.4160003 186.496001,67.4160003 L186.496001,67.4160003 Z M219.776001,68.6960003 L225.856001,47.352 L223.808001,47.352 L218.656001,66.1360003 L213.440001,47.352 L211.776001,47.352 L206.528001,66.1360003 L201.376001,47.352 L199.328001,47.352 L205.440001,68.6960003 L207.488001,68.6960003 L212.608001,50.3600001 L217.728001,68.6960003 L219.776001,68.6960003 Z M246.176001,68.6960003 L246.176001,47.352 L244.352001,47.352 L244.352001,65.4320003 L230.976001,47.352 L229.120001,47.352 L229.120001,68.6960003 L230.944001,68.6960003 L230.944001,50.3600001 L244.384001,68.6960003 L246.176001,68.6960003 Z M263.232002,68.6960003 L263.232002,67.0320003 L252.896002,67.0320003 L252.896002,47.352 L251.040001,47.352 L251.040001,68.6960003 L263.232002,68.6960003 Z M276.544002,69.0800003 C282.784002,69.0800003 286.912002,64.2800003 286.912002,58.0400002 C286.912002,51.8000001 282.784002,47 276.544002,47 C270.272002,47 266.176002,51.8000001 266.176002,58.0400002 C266.176002,64.2800003 270.272002,69.0800003 276.544002,69.0800003 L276.544002,69.0800003 Z M276.544002,67.4160003 C271.392002,67.4160003 268.096002,63.4160002 268.096002,58.0400002 C268.096002,52.6320001 271.392002,48.664 276.544002,48.664 C281.664002,48.664 284.992002,52.6320001 284.992002,58.0400002 C284.992002,63.4160002 281.664002,67.4160003 276.544002,67.4160003 L276.544002,67.4160003 Z M308.992002,68.6960003 L300.256002,47.352 L297.984002,47.352 L289.248002,68.6960003 L291.360002,68.6960003 L293.472002,63.4480002 L304.768002,63.4480002 L306.880002,68.6960003 L308.992002,68.6960003 Z M304.160002,61.7840002 L294.080002,61.7840002 L299.136002,49.304 L304.160002,61.7840002 Z M318.944002,68.6960003 C325.568003,68.6960003 329.728003,63.9600003 329.728003,58.0400002 C329.728003,52.1840001 325.568003,47.352 318.944002,47.352 L312.128002,47.352 L312.128002,68.6960003 L318.944002,68.6960003 Z M318.944002,67.0320003 L313.952002,67.0320003 L313.952002,49.016 L318.944002,49.016 C324.608003,49.016 327.808003,53.0480001 327.808003,58.0400002 C327.808003,63.0320002 324.576003,67.0320003 318.944002,67.0320003 L318.944002,67.0320003 Z M344.384003,68.6960003 L344.384003,58.5840002 L355.872003,58.5840002 L355.872003,56.9200001 L344.384003,56.9200001 L344.384003,49.016 L356.096003,49.016 L356.096003,47.352 L342.560003,47.352 L342.560003,68.6960003 L344.384003,68.6960003 Z M374.624003,68.6960003 L368.448003,59.7360002 C371.648003,59.6080002 374.368003,57.4640002 374.368003,53.5920001 C374.368003,49.688 371.552003,47.352 367.872003,47.352 L359.904003,47.352 L359.904003,68.6960003 L361.728003,68.6960003 L361.728003,59.8640002 L366.432003,59.8640002 L372.416003,68.6960003 L374.624003,68.6960003 Z M367.712003,58.2000002 L361.728003,58.2000002 L361.728003,49.016 L367.712003,49.016 C370.560003,49.016 372.448003,50.9040001 372.448003,53.5920001 C372.448003,56.2800001 370.560003,58.2000002 367.712003,58.2000002 L367.712003,58.2000002 Z M388.480004,69.0800003 C394.720004,69.0800003 398.848004,64.2800003 398.848004,58.0400002 C398.848004,51.8000001 394.720004,47 388.480004,47 C382.208003,47 378.112003,51.8000001 378.112003,58.0400002 C378.112003,64.2800003 382.208003,69.0800003 388.480004,69.0800003 L388.480004,69.0800003 Z M388.480004,67.4160003 C383.328003,67.4160003 380.032003,63.4160002 380.032003,58.0400002 C380.032003,52.6320001 383.328003,48.664 388.480004,48.664 C393.600004,48.664 396.928004,52.6320001 396.928004,58.0400002 C396.928004,63.4160002 393.600004,67.4160003 388.480004,67.4160003 L388.480004,67.4160003 Z M423.328004,68.6960003 L423.328004,47.352 L420.576004,47.352 L413.344004,65.1120003 L406.080004,47.352 L403.360004,47.352 L403.360004,68.6960003 L405.184004,68.6960003 L405.184004,49.656 L412.992004,68.6960003 L413.696004,68.6960003 L421.472004,49.656 L421.472004,68.6960003 L423.328004,68.6960003 Z M174.144,106.696 L165.92,85.352 L160.224,85.352 L152,106.696 L157.152,106.696 L158.496,103.08 L167.648,103.08 L168.992,106.696 L174.144,106.696 Z M166.4,99.0800002 L159.744,99.0800002 L163.072,89.8960001 L166.4,99.0800002 Z M180.672,106.696 L180.672,99.0800002 L186.112001,99.0800002 C190.720001,99.0800002 193.280001,95.9440002 193.280001,92.2320001 C193.280001,88.4880001 190.752001,85.352 186.112001,85.352 L176.128,85.352 L176.128,106.696 L180.672,106.696 Z M185.472,95.0800002 L180.672,95.0800002 L180.672,89.3520001 L185.472,89.3520001 C187.264001,89.3520001 188.640001,90.4400001 188.640001,92.2320001 C188.640001,93.9920001 187.264001,95.0800002 185.472,95.0800002 L185.472,95.0800002 Z M200.672001,106.696 L200.672001,99.0800002 L206.112001,99.0800002 C210.720001,99.0800002 213.280001,95.9440002 213.280001,92.2320001 C213.280001,88.4880001 210.752001,85.352 206.112001,85.352 L196.128001,85.352 L196.128001,106.696 L200.672001,106.696 Z M205.472001,95.0800002 L200.672001,95.0800002 L200.672001,89.3520001 L205.472001,89.3520001 C207.264001,89.3520001 208.640001,90.4400001 208.640001,92.2320001 C208.640001,93.9920001 207.264001,95.0800002 205.472001,95.0800002 L205.472001,95.0800002 Z M229.536001,106.696 L229.536001,102.696 L220.512001,102.696 L220.512001,85.352 L215.936001,85.352 L215.936001,106.696 L229.536001,106.696 Z M247.712001,106.696 L247.712001,102.696 L237.152001,102.696 L237.152001,97.8320002 L247.488001,97.8320002 L247.488001,93.8320001 L237.152001,93.8320001 L237.152001,89.3520001 L247.712001,89.3520001 L247.712001,85.352 L232.608001,85.352 L232.608001,106.696 L247.712001,106.696 Z M279.392002,106.696 L271.168002,85.352 L265.472002,85.352 L257.248002,106.696 L262.400002,106.696 L263.744002,103.08 L272.896002,103.08 L274.240002,106.696 L279.392002,106.696 Z M271.648002,99.0800002 L264.992002,99.0800002 L268.320002,89.8960001 L271.648002,99.0800002 Z M285.920002,106.696 L285.920002,99.0800002 L291.360002,99.0800002 C295.968002,99.0800002 298.528002,95.9440002 298.528002,92.2320001 C298.528002,88.4880001 296.000002,85.352 291.360002,85.352 L281.376002,85.352 L281.376002,106.696 L285.920002,106.696 Z M290.720002,95.0800002 L285.920002,95.0800002 L285.920002,89.3520001 L290.720002,89.3520001 C292.512002,89.3520001 293.888002,90.4400001 293.888002,92.2320001 C293.888002,93.9920001 292.512002,95.0800002 290.720002,95.0800002 L290.720002,95.0800002 Z M305.920002,106.696 L305.920002,99.0800002 L311.360002,99.0800002 C315.968002,99.0800002 318.528002,95.9440002 318.528002,92.2320001 C318.528002,88.4880001 316.000002,85.352 311.360002,85.352 L301.376002,85.352 L301.376002,106.696 L305.920002,106.696 Z M310.720002,95.0800002 L305.920002,95.0800002 L305.920002,89.3520001 L310.720002,89.3520001 C312.512002,89.3520001 313.888002,90.4400001 313.888002,92.2320001 C313.888002,93.9920001 312.512002,95.0800002 310.720002,95.0800002 L310.720002,95.0800002 Z M337.216003,107.08 C342.944003,107.08 345.760003,104.136 345.760003,100.232 C345.760003,92.2640001 333.504003,94.5360001 333.504003,91.1760001 C333.504003,89.8960001 334.592003,89.0640001 336.512003,89.0640001 C338.688003,89.0640001 340.992003,89.8000001 342.720003,91.4000001 L345.248003,88.008 C343.136003,86.056 340.320003,85.032 336.928003,85.032 C331.904003,85.032 328.832003,87.976 328.832003,91.5280001 C328.832003,99.5600002 341.120003,96.9680002 341.120003,100.68 C341.120003,101.928 339.936003,103.048 337.408003,103.048 C334.464003,103.048 332.128003,101.704 330.624003,100.136 L328.128003,103.688 C330.144003,105.704 333.088003,107.08 337.216003,107.08 L337.216003,107.08 Z M358.304003,106.696 L358.304003,89.3520001 L364.512003,89.3520001 L364.512003,85.352 L347.488003,85.352 L347.488003,89.3520001 L353.728003,89.3520001 L353.728003,106.696 L358.304003,106.696 Z M377.568003,107.08 C384.000003,107.08 388.704004,102.472 388.704004,96.0400002 C388.704004,89.6080001 384.000003,85 377.568003,85 C371.104003,85 366.400003,89.6080001 366.400003,96.0400002 C366.400003,102.472 371.104003,107.08 377.568003,107.08 L377.568003,107.08 Z M377.568003,103.048 C373.600003,103.048 371.072003,100.008 371.072003,96.0400002 C371.072003,92.0400001 373.600003,89.0320001 377.568003,89.0320001 C381.504003,89.0320001 384.032003,92.0400001 384.032003,96.0400002 C384.032003,100.008 381.504003,103.048 377.568003,103.048 L377.568003,103.048 Z M409.216004,106.696 L404.384004,98.5680002 C406.688004,98.0240002 409.088004,95.9760002 409.088004,92.2320001 C409.088004,88.264 406.336004,85.352 401.888004,85.352 L391.904004,85.352 L391.904004,106.696 L396.448004,106.696 L396.448004,99.1120002 L399.776004,99.1120002 L403.968004,106.696 L409.216004,106.696 Z M401.248004,95.1120002 L396.448004,95.1120002 L396.448004,89.3520001 L401.248004,89.3520001 C403.040004,89.3520001 404.416004,90.4400001 404.416004,92.2000001 C404.416004,94.0240001 403.040004,95.1120002 401.248004,95.1120002 L401.248004,95.1120002 Z M427.584004,106.696 L427.584004,102.696 L417.024004,102.696 L417.024004,97.8320002 L427.360004,97.8320002 L427.360004,93.8320001 L417.024004,93.8320001 L417.024004,89.3520001 L427.584004,89.3520001 L427.584004,85.352 L412.480004,85.352 L412.480004,106.696 L427.584004,106.696 Z" id="DOWNLOAD-FROM" fill="#FFFFFF"></path>
            <path d="M87.1155076,55.5524773 C89.2527748,52.8150834 90.8766268,48.951011 90.2878479,45 C86.7952119,45.2408437 82.7102643,47.4577803 80.32571,50.3467295 C78.161359,52.9689884 76.3738265,56.8589074 77.0697631,60.6395656 C80.8815172,60.7570503 84.8263355,58.4848958 87.1155076,55.5524773 Z M106,92.6870467 C104.469175,96.0717814 103.736734,97.58146 101.765503,100.571446 C99.017083,104.746853 95.1417407,109.944377 90.340838,109.990196 C86.0721915,110.028966 84.9770628,107.218731 79.1858342,107.250452 C73.3957831,107.283348 72.1864314,110.038365 67.9189624,109.999595 C63.1168822,109.956125 59.4440798,105.261436 56.6944826,101.087204 C49.005031,89.4127476 48.2019367,75.7116799 52.9439614,68.4276275 C56.3141315,63.2512508 61.6296268,60.2224948 66.6283592,60.2224948 C71.718941,60.2224948 74.9183652,63.0057078 79.1257788,63.0057078 C83.2083712,63.0057078 85.695373,60.2177954 91.5796287,60.2177954 C96.0272641,60.2177954 100.73985,62.634456 104.098244,66.8098629 C93.0951454,72.8250804 94.882678,88.4963668 106,92.6870467 Z" id="Icon---Apple" fill="#FFFFFF"></path>
        </g>
    </g>
</svg>