<?xml version="1.0" encoding="UTF-8"?>
<svg width="528px" height="154px" viewBox="0 0 528 154" version="1.1" xmlns="http://www.w3.org/2000/svg" xmlns:xlink="http://www.w3.org/1999/xlink">
    <!-- Generator: Sketch 43.2 (39069) - http://www.bohemiancoding.com/sketch -->
    <title>app-store-ru</title>
    <desc>Created with Sketch.</desc>
    <defs></defs>
    <g id="Page-1" stroke="none" stroke-width="1" fill="none" fill-rule="evenodd">
        <g id="app-store-ru">
            <rect id="Button" fill="#2B2D32" fill-rule="nonzero" x="0" y="0" width="528" height="154" rx="19.2000003"></rect>
            <path d="M174.144,106.696 L165.92,85.352 L160.224,85.352 L152,106.696 L157.152,106.696 L158.496,103.08 L167.648,103.08 L168.992,106.696 L174.144,106.696 Z M166.4,99.0800002 L159.744,99.0800002 L163.072,89.8960001 L166.4,99.0800002 Z M180.672,106.696 L180.672,99.0800002 L186.112001,99.0800002 C190.720001,99.0800002 193.280001,95.9440002 193.280001,92.2320001 C193.280001,88.4880001 190.752001,85.352 186.112001,85.352 L176.128,85.352 L176.128,106.696 L180.672,106.696 Z M185.472,95.0800002 L180.672,95.0800002 L180.672,89.3520001 L185.472,89.3520001 C187.264001,89.3520001 188.640001,90.4400001 188.640001,92.2320001 C188.640001,93.9920001 187.264001,95.0800002 185.472,95.0800002 L185.472,95.0800002 Z M200.672001,106.696 L200.672001,99.0800002 L206.112001,99.0800002 C210.720001,99.0800002 213.280001,95.9440002 213.280001,92.2320001 C213.280001,88.4880001 210.752001,85.352 206.112001,85.352 L196.128001,85.352 L196.128001,106.696 L200.672001,106.696 Z M205.472001,95.0800002 L200.672001,95.0800002 L200.672001,89.3520001 L205.472001,89.3520001 C207.264001,89.3520001 208.640001,90.4400001 208.640001,92.2320001 C208.640001,93.9920001 207.264001,95.0800002 205.472001,95.0800002 L205.472001,95.0800002 Z M229.536001,106.696 L229.536001,102.696 L220.512001,102.696 L220.512001,85.352 L215.936001,85.352 L215.936001,106.696 L229.536001,106.696 Z M247.712001,106.696 L247.712001,102.696 L237.152001,102.696 L237.152001,97.8320002 L247.488001,97.8320002 L247.488001,93.8320001 L237.152001,93.8320001 L237.152001,89.3520001 L247.712001,89.3520001 L247.712001,85.352 L232.608001,85.352 L232.608001,106.696 L247.712001,106.696 Z M279.392002,106.696 L271.168002,85.352 L265.472002,85.352 L257.248002,106.696 L262.400002,106.696 L263.744002,103.08 L272.896002,103.08 L274.240002,106.696 L279.392002,106.696 Z M271.648002,99.0800002 L264.992002,99.0800002 L268.320002,89.8960001 L271.648002,99.0800002 Z M285.920002,106.696 L285.920002,99.0800002 L291.360002,99.0800002 C295.968002,99.0800002 298.528002,95.9440002 298.528002,92.2320001 C298.528002,88.4880001 296.000002,85.352 291.360002,85.352 L281.376002,85.352 L281.376002,106.696 L285.920002,106.696 Z M290.720002,95.0800002 L285.920002,95.0800002 L285.920002,89.3520001 L290.720002,89.3520001 C292.512002,89.3520001 293.888002,90.4400001 293.888002,92.2320001 C293.888002,93.9920001 292.512002,95.0800002 290.720002,95.0800002 L290.720002,95.0800002 Z M305.920002,106.696 L305.920002,99.0800002 L311.360002,99.0800002 C315.968002,99.0800002 318.528002,95.9440002 318.528002,92.2320001 C318.528002,88.4880001 316.000002,85.352 311.360002,85.352 L301.376002,85.352 L301.376002,106.696 L305.920002,106.696 Z M310.720002,95.0800002 L305.920002,95.0800002 L305.920002,89.3520001 L310.720002,89.3520001 C312.512002,89.3520001 313.888002,90.4400001 313.888002,92.2320001 C313.888002,93.9920001 312.512002,95.0800002 310.720002,95.0800002 L310.720002,95.0800002 Z M337.216003,107.08 C342.944003,107.08 345.760003,104.136 345.760003,100.232 C345.760003,92.2640001 333.504003,94.5360001 333.504003,91.1760001 C333.504003,89.8960001 334.592003,89.0640001 336.512003,89.0640001 C338.688003,89.0640001 340.992003,89.8000001 342.720003,91.4000001 L345.248003,88.008 C343.136003,86.056 340.320003,85.032 336.928003,85.032 C331.904003,85.032 328.832003,87.976 328.832003,91.5280001 C328.832003,99.5600002 341.120003,96.9680002 341.120003,100.68 C341.120003,101.928 339.936003,103.048 337.408003,103.048 C334.464003,103.048 332.128003,101.704 330.624003,100.136 L328.128003,103.688 C330.144003,105.704 333.088003,107.08 337.216003,107.08 L337.216003,107.08 Z M358.304003,106.696 L358.304003,89.3520001 L364.512003,89.3520001 L364.512003,85.352 L347.488003,85.352 L347.488003,89.3520001 L353.728003,89.3520001 L353.728003,106.696 L358.304003,106.696 Z M377.568003,107.08 C384.000003,107.08 388.704004,102.472 388.704004,96.0400002 C388.704004,89.6080001 384.000003,85 377.568003,85 C371.104003,85 366.400003,89.6080001 366.400003,96.0400002 C366.400003,102.472 371.104003,107.08 377.568003,107.08 L377.568003,107.08 Z M377.568003,103.048 C373.600003,103.048 371.072003,100.008 371.072003,96.0400002 C371.072003,92.0400001 373.600003,89.0320001 377.568003,89.0320001 C381.504003,89.0320001 384.032003,92.0400001 384.032003,96.0400002 C384.032003,100.008 381.504003,103.048 377.568003,103.048 L377.568003,103.048 Z M409.216004,106.696 L404.384004,98.5680002 C406.688004,98.0240002 409.088004,95.9760002 409.088004,92.2320001 C409.088004,88.264 406.336004,85.352 401.888004,85.352 L391.904004,85.352 L391.904004,106.696 L396.448004,106.696 L396.448004,99.1120002 L399.776004,99.1120002 L403.968004,106.696 L409.216004,106.696 Z M401.248004,95.1120002 L396.448004,95.1120002 L396.448004,89.3520001 L401.248004,89.3520001 C403.040004,89.3520001 404.416004,90.4400001 404.416004,92.2000001 C404.416004,94.0240001 403.040004,95.1120002 401.248004,95.1120002 L401.248004,95.1120002 Z M427.584004,106.696 L427.584004,102.696 L417.024004,102.696 L417.024004,97.8320002 L427.360004,97.8320002 L427.360004,93.8320001 L417.024004,93.8320001 L417.024004,89.3520001 L427.584004,89.3520001 L427.584004,85.352 L412.480004,85.352 L412.480004,106.696 L427.584004,106.696 Z" id="DOWNLOAD-FROM" fill="#FFFFFF" fill-rule="nonzero"></path>
            <path d="M87.1155076,55.5524773 C89.2527748,52.8150834 90.8766268,48.951011 90.2878479,45 C86.7952119,45.2408437 82.7102643,47.4577803 80.32571,50.3467295 C78.161359,52.9689884 76.3738265,56.8589074 77.0697631,60.6395656 C80.8815172,60.7570503 84.8263355,58.4848958 87.1155076,55.5524773 Z M106,92.6870467 C104.469175,96.0717814 103.736734,97.58146 101.765503,100.571446 C99.017083,104.746853 95.1417407,109.944377 90.340838,109.990196 C86.0721915,110.028966 84.9770628,107.218731 79.1858342,107.250452 C73.3957831,107.283348 72.1864314,110.038365 67.9189624,109.999595 C63.1168822,109.956125 59.4440798,105.261436 56.6944826,101.087204 C49.005031,89.4127476 48.2019367,75.7116799 52.9439614,68.4276275 C56.3141315,63.2512508 61.6296268,60.2224948 66.6283592,60.2224948 C71.718941,60.2224948 74.9183652,63.0057078 79.1257788,63.0057078 C83.2083712,63.0057078 85.695373,60.2177954 91.5796287,60.2177954 C96.0272641,60.2177954 100.73985,62.634456 104.098244,66.8098629 C93.0951454,72.8250804 94.882678,88.4963668 106,92.6870467 Z" id="Icon---Apple" fill="#FFFFFF" fill-rule="nonzero"></path>
            <path d="M169.797852,61.3496094 C169.55371,63.5957144 168.750495,65.3144472 167.388184,66.5058594 C166.025872,67.6972716 164.211925,68.2929688 161.946289,68.2929688 C160.36425,68.2929688 158.965338,67.8974649 157.749512,67.1064453 C156.533685,66.3154257 155.593753,65.1948315 154.929688,63.7446289 C154.265622,62.2944263 153.928711,60.6367281 153.918945,58.7714844 L153.918945,56.0029297 C153.918945,54.108389 154.250973,52.4287183 154.915039,50.9638672 C155.579105,49.4990161 156.533685,48.3686563 157.778809,47.5727539 C159.023932,46.7768515 160.457023,46.3789062 162.078125,46.3789062 C164.363293,46.3789062 166.167474,46.9965759 167.490723,48.2319336 C168.813971,49.4672913 169.583007,51.1738172 169.797852,53.3515625 L167.981445,53.3515625 C167.532224,49.7284975 165.564471,47.9169922 162.078125,47.9169922 C160.144522,47.9169922 158.60401,48.6396412 157.456543,50.0849609 C156.309076,51.5302807 155.735352,53.527331 155.735352,56.0761719 L155.735352,58.6835938 C155.735352,61.1445436 156.294428,63.1074146 157.412598,64.5722656 C158.530767,66.0371167 160.041983,66.7695312 161.946289,66.7695312 C163.831064,66.7695312 165.251948,66.3178756 166.208984,65.4145508 C167.16602,64.511226 167.756835,63.156259 167.981445,61.3496094 L169.797852,61.3496094 Z M178.982422,57.9951172 L176.052734,57.9951172 L176.052734,68 L174.250977,68 L174.250977,46.671875 L176.052734,46.671875 L176.052734,56.4570312 L178.894531,56.4570312 L187.141602,46.671875 L189.412109,46.671875 L180.652344,57.1601562 L190.056641,68 L187.81543,68 L178.982422,57.9951172 Z M204.851562,62.0234375 L195.168945,62.0234375 L192.97168,68 L191.082031,68 L199.15332,46.671875 L200.867188,46.671875 L208.938477,68 L207.063477,68 L204.851562,62.0234375 Z M195.725586,60.4853516 L204.280273,60.4853516 L200.00293,48.8691406 L195.725586,60.4853516 Z M225.813477,46.671875 L225.813477,68 L223.99707,68 L223.99707,58.3027344 C221.995107,58.8593778 220.071298,59.1376953 218.225586,59.1376953 C215.803699,59.1376953 214.016607,58.6152396 212.864258,57.5703125 C211.711908,56.5253854 211.121094,54.9189562 211.091797,52.7509766 L211.091797,46.671875 L212.908203,46.671875 L212.908203,52.6484375 C212.917969,54.3769618 213.345211,55.6342734 214.189941,56.4204102 C215.034672,57.2065469 216.379874,57.5996094 218.225586,57.5996094 C220.09083,57.5996094 222.014639,57.3212918 223.99707,56.7646484 L223.99707,46.671875 L225.813477,46.671875 Z M242.74707,62.0234375 L233.064453,62.0234375 L230.867188,68 L228.977539,68 L237.048828,46.671875 L238.762695,46.671875 L246.833984,68 L244.958984,68 L242.74707,62.0234375 Z M233.621094,60.4853516 L242.175781,60.4853516 L237.898438,48.8691406 L233.621094,60.4853516 Z M262.551758,48.2099609 L255.242188,48.2099609 L255.242188,68 L253.44043,68 L253.44043,48.2099609 L246.145508,48.2099609 L246.145508,46.671875 L262.551758,46.671875 L262.551758,48.2099609 Z M267.927734,55.9296875 L273.21582,55.9296875 C274.670906,55.9296875 275.930659,56.1713843 276.995117,56.6547852 C278.059576,57.138186 278.872556,57.8315385 279.434082,58.7348633 C279.995608,59.6381881 280.276367,60.705072 280.276367,61.9355469 C280.276367,63.8203219 279.646491,65.3022407 278.386719,66.3813477 C277.126947,67.4604546 275.3838,68 273.157227,68 L266.125977,68 L266.125977,46.671875 L267.927734,46.671875 L267.927734,55.9296875 Z M267.927734,57.4677734 L267.927734,66.4765625 L273.201172,66.4765625 C274.851571,66.4765625 276.14062,66.0688517 277.068359,65.253418 C277.996098,64.4379842 278.459961,63.3222727 278.459961,61.90625 C278.459961,60.558587 278.010747,59.4868204 277.112305,58.690918 C276.213863,57.8950156 274.95411,57.4873048 273.333008,57.4677734 L267.927734,57.4677734 Z M306.980469,61.3496094 C306.736327,63.5957144 305.933112,65.3144472 304.570801,66.5058594 C303.208489,67.6972716 301.394543,68.2929688 299.128906,68.2929688 C297.546867,68.2929688 296.147955,67.8974649 294.932129,67.1064453 C293.716303,66.3154257 292.776371,65.1948315 292.112305,63.7446289 C291.448239,62.2944263 291.111328,60.6367281 291.101562,58.7714844 L291.101562,56.0029297 C291.101562,54.108389 291.43359,52.4287183 292.097656,50.9638672 C292.761722,49.4990161 293.716302,48.3686563 294.961426,47.5727539 C296.206549,46.7768515 297.63964,46.3789062 299.260742,46.3789062 C301.54591,46.3789062 303.350091,46.9965759 304.67334,48.2319336 C305.996589,49.4672913 306.765624,51.1738172 306.980469,53.3515625 L305.164062,53.3515625 C304.714842,49.7284975 302.747088,47.9169922 299.260742,47.9169922 C297.327139,47.9169922 295.786627,48.6396412 294.63916,50.0849609 C293.491693,51.5302807 292.917969,53.527331 292.917969,56.0761719 L292.917969,58.6835938 C292.917969,61.1445436 293.477045,63.1074146 294.595215,64.5722656 C295.713384,66.0371167 297.2246,66.7695312 299.128906,66.7695312 C301.013681,66.7695312 302.434566,66.3178756 303.391602,65.4145508 C304.348638,64.511226 304.939452,63.156259 305.164062,61.3496094 L306.980469,61.3496094 Z" id="СКАЧАТЬ-С" fill="#FFFFFF"></path>
        </g>
    </g>
</svg>