<?xml version="1.0" encoding="UTF-8" standalone="no"?>
<svg width="31px" height="20px" viewBox="0 0 31 20" version="1.1" xmlns="http://www.w3.org/2000/svg" xmlns:xlink="http://www.w3.org/1999/xlink">
    <!-- Generator: Sketch 3.8.2 (29753) - http://www.bohemiancoding.com/sketch -->
    <title>logo</title>
    <desc>Created with Sketch.</desc>
    <defs></defs>
    <g id="Page-1" stroke="none" stroke-width="1" fill="none" fill-rule="evenodd">
        <g id="logo" transform="translate(-14.000000, -20.000000)">
            <rect id="Rectangle-307" x="0" y="0" width="60" height="60"></rect>
            <g id="Fill-174-+-Fill-175" transform="translate(14.000000, 20.000000)" fill="#FFFFFF">
                <path d="M15.3970524,19.7349105 C4.99032652,19.7349105 0.284882188,10.7526074 0.0893525137,10.3705144 C-0.0297841712,10.1371616 -0.0297841712,9.86283841 0.0893525137,9.62948556 C0.284882188,9.24739255 4.99032652,0.265089466 15.3970524,0.265089466 C25.8037782,0.265089466 30.5092226,9.24739255 30.7047522,9.62948556 C30.8238889,9.86283841 30.8238889,10.1371616 30.7047522,10.3705144 C30.5092226,10.7526074 25.8037782,19.7349105 15.3970524,19.7349105 L15.3970524,19.7349105 Z M1.81456085,10 C2.79675642,11.6325792 7.19480992,18.0782835 15.3970524,18.0782835 C23.5992948,18.0782835 27.9973483,11.6325792 28.9795439,10 C27.9973483,8.36742077 23.5992948,1.92171651 15.3970524,1.92171651 C7.19480992,1.92171651 2.79675642,8.36742077 1.81456085,10 L1.81456085,10 Z" id="Fill-174"></path>
                <path d="M15.4522389,17.5715971 C11.1920584,17.5715971 7.72611947,14.1749769 7.72611947,10 C7.72611947,5.82502306 11.1920584,2.42840292 15.4522389,2.42840292 C19.7124195,2.42840292 23.1783584,5.82502306 23.1783584,10 C23.1783584,14.1749769 19.7124195,17.5715971 15.4522389,17.5715971 Z M12.8640726,6.79261914 C14.8539377,5.31269629 17.8344161,5.54836504 19.5084517,7.31665331 C19.825028,7.65105367 19.7768011,8.14812114 19.4006368,8.42788589 C19.0244725,8.70765064 18.4638109,8.66343193 18.1472347,8.32903157 C17.1045039,7.22759226 15.2479282,7.08176839 14.0096599,8.00270604 C12.7713915,8.92364368 12.6110241,10.5695291 13.6537548,11.6709684 C14.6964856,12.7724077 16.5530613,12.9182316 17.7913296,11.997294 C18.1674939,11.7175292 18.7281555,11.7617479 19.0447318,12.0961483 C19.3613081,12.4305486 19.3130812,12.9276161 18.9369169,13.2073809 C16.9470518,14.6873037 13.9665734,14.451635 12.2925378,12.6833467 C10.6185022,10.9150584 10.8742075,8.27254199 12.8640726,6.79261914 Z" id="Fill-175"></path>
            </g>
        </g>
    </g>
</svg>