<?xml version="1.0" encoding="UTF-8" standalone="no"?>
<svg width="56px" height="36px" viewBox="0 0 56 36" version="1.1" xmlns="http://www.w3.org/2000/svg" xmlns:xlink="http://www.w3.org/1999/xlink">
    <!-- Generator: Sketch 3.8.2 (29753) - http://www.bohemiancoding.com/sketch -->
    <title>Fill 174 + Fill 175</title>
    <desc>Created with Sketch.</desc>
    <defs></defs>
    <g id="Page-1" stroke="none" stroke-width="1" fill="none" fill-rule="evenodd">
        <g id="Fill-174-+-Fill-175" fill="#E1E5EC">
            <path d="M27.9,36 C9.04264704,36 0.516216535,19.3915828 0.161909895,18.6850869 C-0.053969965,18.2536139 -0.053969965,17.7463861 0.161909895,17.3149131 C0.516216535,16.6084172 9.04264704,0 27.9,0 C46.757353,0 55.2837835,16.6084172 55.6380901,17.3149131 C55.85397,17.7463861 55.85397,18.2536139 55.6380901,18.6850869 C55.2837835,19.3915828 46.757353,36 27.9,36 L27.9,36 Z M3.28804802,18 C5.06782091,21.0186642 13.0372484,32.936871 27.9,32.936871 C42.7627516,32.936871 50.7321791,21.0186642 52.511952,18 C50.7321791,14.9813358 42.7627516,3.063129 27.9,3.063129 C13.0372484,3.063129 5.06782091,14.9813358 3.28804802,18 L3.28804802,18 Z" id="Fill-174"></path>
            <path d="M28,32 C20.2804031,32 14,25.7195969 14,18 C14,10.2804031 20.2804031,4 28,4 C35.7195969,4 42,10.2804031 42,18 C42,25.7195969 35.7195969,32 28,32 Z M23.3101516,12.0695032 C26.9158571,9.33310301 32.3165887,9.76885817 35.3500001,13.0384505 C35.9236474,13.6567619 35.8362586,14.5758474 35.1546357,15.0931367 C34.4730128,15.6104261 33.4570743,15.528665 32.883427,14.9103536 C30.9939622,12.8737753 27.6297818,12.6041447 25.385996,14.3069726 C23.1422102,16.0098005 22.8516188,19.0530681 24.7410836,21.0896464 C26.6305484,23.1262247 29.9947287,23.3958553 32.2385146,21.6930274 C32.9201374,21.1757381 33.936076,21.2574991 34.5097233,21.8758106 C35.0833706,22.494122 34.9959818,23.4132074 34.3143589,23.9304968 C30.7086535,26.666897 25.3079218,26.2311418 22.2745105,22.9615495 C19.2410992,19.6919572 19.7044461,14.8059034 23.3101516,12.0695032 Z" id="Fill-175"></path>
        </g>
    </g>
</svg>