<?xml version="1.0" encoding="UTF-8"?>
<svg width="528px" height="154px" viewBox="0 0 528 154" version="1.1" xmlns="http://www.w3.org/2000/svg" xmlns:xlink="http://www.w3.org/1999/xlink">
    <!-- Generator: Sketch 40.1 (33804) - http://www.bohemiancoding.com/sketch -->
    <title>magic</title>
    <desc>Created with Sketch.</desc>
    <defs></defs>
    <g id="Page-1" stroke="none" stroke-width="1" fill="none" fill-rule="evenodd">
        <g id="magic">
            <g id="Page-1">
                <g id="app-store">
                    <g id="Page-1">
                        <g id="Button---App-Store">
                            <rect id="Button" fill="#2B2D32" x="0" y="0" width="528" height="154" rx="19.2000003"></rect>
                            <text id="Let-the-magic" fill="#FFFFFF" font-family="Helvetica" font-size="40" font-weight="normal">
                                <tspan x="161.162109" y="66">Let the magic</tspan>
                            </text>
                            <text id="do-it’s-work!" fill="#FFFFFF" font-family="Helvetica" font-size="40" font-weight="normal">
                                <tspan x="174.189453" y="114">do it’s work!</tspan>
                            </text>
                        </g>
                    </g>
                </g>
            </g>
            <g id="123" transform="translate(34.000000, 28.000000)" fill="#FFFFFF">
                <g id="Group">
                    <g id="Shape">
                        <path d="M91.862,26 L90.207,26 C87.918,26 86.069,27.17 86.069,29 C86.069,30.83 87.918,32 90.207,32 L91.862,32 C94.151,32 96,30.83 96,29 C96,27.17 94.151,26 91.862,26 L91.862,26 Z"></path>
                        <path d="M68,10.93 C69.83,10.93 71,9.081 71,6.792 L71,5.137 C71,2.848 69.83,0.999 68,0.999 C66.17,0.999 65,2.848 65,5.137 L65,6.792 C65,9.081 66.17,10.93 68,10.93 L68,10.93 Z"></path>
                        <path d="M85.616,14.854 L89.994,10.477 C91.189,9.278 91.384,7.532 90.427,6.575 C89.464,5.615 87.721,5.809 86.522,7.006 L82.148,11.383 C80.949,12.582 80.754,14.328 81.715,15.285 C82.675,16.245 84.417,16.051 85.616,14.854 L85.616,14.854 Z"></path>
                        <path d="M53.418,18.162 C54.62,19.361 56.366,19.556 57.323,18.595 C58.279,17.635 58.086,15.893 56.889,14.694 L52.512,10.316 C51.316,9.121 49.57,8.926 48.613,9.883 C47.65,10.846 47.844,12.589 49.04,13.788 L53.418,18.162 L53.418,18.162 Z"></path>
                        <path d="M82.306,40.109 C81.111,38.913 79.365,38.719 78.408,39.676 C77.445,40.639 77.638,42.381 78.835,43.58 L83.212,47.954 C84.415,49.154 86.16,49.348 87.117,48.388 C88.074,47.428 87.881,45.686 86.684,44.486 L82.306,40.109 L82.306,40.109 Z"></path>
                        <path d="M30.855,52.045 C30.845,52.052 30.845,52.065 30.833,52.071 L0.975,81.936 C-0.324,83.242 -0.324,85.343 0.975,86.643 L10.367,96.025 C11.66,97.331 13.764,97.325 15.064,96.025 L67.426,43.672 L53.334,29.577 L30.855,52.045 L30.855,52.045 Z"></path>
                        <path d="M81.782,24.599 L72.39,15.217 C71.097,13.911 68.993,13.917 67.693,15.217 L55.952,26.955 L70.041,41.047 L81.782,29.306 C83.082,27.999 83.082,25.898 81.782,24.599 L81.782,24.599 Z"></path>
                    </g>
                </g>
            </g>
        </g>
    </g>
</svg>