<?xml version="1.0" encoding="UTF-8"?>
<svg width="528px" height="154px" viewBox="0 0 528 154" version="1.1" xmlns="http://www.w3.org/2000/svg" xmlns:xlink="http://www.w3.org/1999/xlink">
    <!-- Generator: Sketch 40.1 (33804) - http://www.bohemiancoding.com/sketch -->
    <title>app-store</title>
    <desc>Created with Sketch.</desc>
    <defs></defs>
    <g id="Page-1" stroke="none" stroke-width="1" fill="none" fill-rule="evenodd">
        <g id="app-store">
            <g id="Page-1">
                <g id="Button---App-Store">
                    <rect id="Button" fill="#2B2D32" x="0" y="0" width="528" height="154" rx="19.2000003"></rect>
                    <text id="Let-the-magic-do-it’" font-family="SFUIText-Regular, SF UI  Text" font-size="40" font-weight="normal" fill="#FFFFFF">
                        <tspan x="161.162109" y="66">Let the magic</tspan>
                        <tspan x="174.189453" y="114">do it’s work!</tspan>
                    </text>
                    <path d="M87.1155076,55.5524773 C89.2527748,52.8150834 90.8766268,48.951011 90.2878479,45 C86.7952119,45.2408437 82.7102643,47.4577803 80.32571,50.3467295 C78.161359,52.9689884 76.3738265,56.8589074 77.0697631,60.6395656 C80.8815172,60.7570503 84.8263355,58.4848958 87.1155076,55.5524773 L87.1155076,55.5524773 Z M106,92.6870467 C104.469175,96.0717814 103.736734,97.58146 101.765503,100.571446 C99.017083,104.746853 95.1417407,109.944377 90.340838,109.990196 C86.0721915,110.028966 84.9770628,107.218731 79.1858342,107.250452 C73.3957831,107.283348 72.1864314,110.038365 67.9189624,109.999595 C63.1168822,109.956125 59.4440798,105.261436 56.6944826,101.087204 C49.005031,89.4127476 48.2019367,75.7116799 52.9439614,68.4276275 C56.3141315,63.2512508 61.6296268,60.2224948 66.6283592,60.2224948 C71.718941,60.2224948 74.9183652,63.0057078 79.1257788,63.0057078 C83.2083712,63.0057078 85.695373,60.2177954 91.5796287,60.2177954 C96.0272641,60.2177954 100.73985,62.634456 104.098244,66.8098629 C93.0951454,72.8250804 94.882678,88.4963668 106,92.6870467 L106,92.6870467 Z" id="Icon---Apple" fill="#FFFFFF"></path>
                </g>
            </g>
        </g>
    </g>
</svg>