<?xml version="1.0" encoding="UTF-8" standalone="no"?>
<svg width="528px" height="154px" viewBox="0 0 528 154" version="1.1" xmlns="http://www.w3.org/2000/svg" xmlns:xlink="http://www.w3.org/1999/xlink">
    <!-- Generator: Sketch 3.8.2 (29753) - http://www.bohemiancoding.com/sketch -->
    <title>Button - Play Store</title>
    <desc>Created with Sketch.</desc>
    <defs>
        <linearGradient x1="19.2147947%" y1="-35.1571758%" x2="69.3023416%" y2="93.5367562%" id="linearGradient-1">
            <stop stop-color="#19A3B4" offset="0%"></stop>
            <stop stop-color="#5BC3AF" offset="34.816763%"></stop>
            <stop stop-color="#C9F7A6" offset="92.2336229%"></stop>
            <stop stop-color="#D7FEA5" offset="100%"></stop>
        </linearGradient>
        <path d="M49.112685,24.0931235 L6.32273789,0.720423116 C5.10945026,0.0609989912 3.99041804,-0.092401787 3.08396183,0.188500937 L38.1329334,35.0025087 L49.112685,24.0931235" id="path-2"></path>
        <linearGradient x1="-14.698314%" y1="-114.321644%" x2="74.8444046%" y2="114.156353%" id="linearGradient-4">
            <stop stop-color="#FC227C" offset="0%"></stop>
            <stop stop-color="#FEEB7B" offset="100%"></stop>
        </linearGradient>
        <linearGradient x1="28.1511582%" y1="-14.8137139%" x2="48.1878808%" y2="82.8944571%" id="linearGradient-5">
            <stop stop-color="#0E4DA0" offset="0%"></stop>
            <stop stop-color="#6BFED4" offset="100%"></stop>
        </linearGradient>
        <path d="M3.0819564,0.188500937 C1.78042968,0.59292117 0.93814736,1.90180833 0.93814736,3.88207292 L0.946169096,66.2066177 C0.946169096,68.1649679 1.76238077,69.4539328 3.02580424,69.8842519 L38.1329334,35.0084854 L3.0819564,0.188500937" id="path-6"></path>
        <linearGradient x1="132.244588%" y1="16.465744%" x2="5.95853392%" y2="126.310354%" id="linearGradient-8">
            <stop stop-color="#FC472E" offset="0%"></stop>
            <stop stop-color="#FC472E" offset="0.331892433%"></stop>
            <stop stop-color="#893CD8" offset="100%"></stop>
        </linearGradient>
        <path d="M3.02580424,69.8842519 C3.93827675,70.1910535 5.07936875,70.0476138 6.32273789,69.3702597 L49.1628209,45.9656838 L38.1329334,35.0084854 L3.02580424,69.8842519" id="path-9"></path>
    </defs>
    <g id="Page-1" stroke="none" stroke-width="1" fill="none" fill-rule="evenodd">
        <g id="Button---Play-Store">
            <rect id="Button" fill="#2B2D32" x="0" y="0" width="528" height="154" rx="19.2000003"></rect>
            <g id="Icon---Google-Play" transform="translate(47.000000, 42.000000)">
                <mask id="mask-3" fill="white">
                    <use xlink:href="#path-2"></use>
                </mask>
                <use id="Fill-1" fill="url(#linearGradient-1)" xlink:href="#path-2"></use>
                <path d="M49.1688372,45.9656838 L63.7764191,37.9868511 C66.7384452,36.3631935 66.7384452,33.7215126 63.7764191,32.1018395 L49.1146904,24.0931235 L38.1329334,35.0025087 L49.1688372,45.9656838" id="Fill-2" fill="url(#linearGradient-4)"></path>
                <mask id="mask-7" fill="white">
                    <use xlink:href="#path-6"></use>
                </mask>
                <use id="Fill-3" fill="url(#linearGradient-5)" xlink:href="#path-6"></use>
                <mask id="mask-10" fill="white">
                    <use xlink:href="#path-9"></use>
                </mask>
                <use id="Fill-4" fill="url(#linearGradient-8)" xlink:href="#path-9"></use>
            </g>
            <path d="M161.384,68.6960003 C168.008,68.6960003 172.168,63.9600003 172.168,58.0400002 C172.168,52.1840001 168.008,47.352 161.384,47.352 L154.568,47.352 L154.568,68.6960003 L161.384,68.6960003 Z M161.384,67.0320003 L156.392,67.0320003 L156.392,49.016 L161.384,49.016 C167.048,49.016 170.248,53.0480001 170.248,58.0400002 C170.248,63.0320002 167.016,67.0320003 161.384,67.0320003 L161.384,67.0320003 Z M186.28,69.0800003 C192.520001,69.0800003 196.648001,64.2800003 196.648001,58.0400002 C196.648001,51.8000001 192.520001,47 186.28,47 C180.008,47 175.912,51.8000001 175.912,58.0400002 C175.912,64.2800003 180.008,69.0800003 186.28,69.0800003 L186.28,69.0800003 Z M186.28,67.4160003 C181.128,67.4160003 177.832,63.4160002 177.832,58.0400002 C177.832,52.6320001 181.128,48.664 186.28,48.664 C191.400001,48.664 194.728001,52.6320001 194.728001,58.0400002 C194.728001,63.4160002 191.400001,67.4160003 186.28,67.4160003 L186.28,67.4160003 Z M219.560001,68.6960003 L225.640001,47.352 L223.592001,47.352 L218.440001,66.1360003 L213.224001,47.352 L211.560001,47.352 L206.312001,66.1360003 L201.160001,47.352 L199.112001,47.352 L205.224001,68.6960003 L207.272001,68.6960003 L212.392001,50.3600001 L217.512001,68.6960003 L219.560001,68.6960003 Z M245.960001,68.6960003 L245.960001,47.352 L244.136001,47.352 L244.136001,65.4320003 L230.760001,47.352 L228.904001,47.352 L228.904001,68.6960003 L230.728001,68.6960003 L230.728001,50.3600001 L244.168001,68.6960003 L245.960001,68.6960003 Z M263.016002,68.6960003 L263.016002,67.0320003 L252.680001,67.0320003 L252.680001,47.352 L250.824001,47.352 L250.824001,68.6960003 L263.016002,68.6960003 Z M276.328002,69.0800003 C282.568002,69.0800003 286.696002,64.2800003 286.696002,58.0400002 C286.696002,51.8000001 282.568002,47 276.328002,47 C270.056002,47 265.960002,51.8000001 265.960002,58.0400002 C265.960002,64.2800003 270.056002,69.0800003 276.328002,69.0800003 L276.328002,69.0800003 Z M276.328002,67.4160003 C271.176002,67.4160003 267.880002,63.4160002 267.880002,58.0400002 C267.880002,52.6320001 271.176002,48.664 276.328002,48.664 C281.448002,48.664 284.776002,52.6320001 284.776002,58.0400002 C284.776002,63.4160002 281.448002,67.4160003 276.328002,67.4160003 L276.328002,67.4160003 Z M308.776002,68.6960003 L300.040002,47.352 L297.768002,47.352 L289.032002,68.6960003 L291.144002,68.6960003 L293.256002,63.4480002 L304.552002,63.4480002 L306.664002,68.6960003 L308.776002,68.6960003 Z M303.944002,61.7840002 L293.864002,61.7840002 L298.920002,49.304 L303.944002,61.7840002 Z M318.728002,68.6960003 C325.352003,68.6960003 329.512003,63.9600003 329.512003,58.0400002 C329.512003,52.1840001 325.352003,47.352 318.728002,47.352 L311.912002,47.352 L311.912002,68.6960003 L318.728002,68.6960003 Z M318.728002,67.0320003 L313.736002,67.0320003 L313.736002,49.016 L318.728002,49.016 C324.392003,49.016 327.592003,53.0480001 327.592003,58.0400002 C327.592003,63.0320002 324.360003,67.0320003 318.728002,67.0320003 L318.728002,67.0320003 Z M344.168003,68.6960003 L344.168003,58.5840002 L355.656003,58.5840002 L355.656003,56.9200001 L344.168003,56.9200001 L344.168003,49.016 L355.880003,49.016 L355.880003,47.352 L342.344003,47.352 L342.344003,68.6960003 L344.168003,68.6960003 Z M374.408003,68.6960003 L368.232003,59.7360002 C371.432003,59.6080002 374.152003,57.4640002 374.152003,53.5920001 C374.152003,49.688 371.336003,47.352 367.656003,47.352 L359.688003,47.352 L359.688003,68.6960003 L361.512003,68.6960003 L361.512003,59.8640002 L366.216003,59.8640002 L372.200003,68.6960003 L374.408003,68.6960003 Z M367.496003,58.2000002 L361.512003,58.2000002 L361.512003,49.016 L367.496003,49.016 C370.344003,49.016 372.232003,50.9040001 372.232003,53.5920001 C372.232003,56.2800001 370.344003,58.2000002 367.496003,58.2000002 L367.496003,58.2000002 Z M388.264004,69.0800003 C394.504004,69.0800003 398.632004,64.2800003 398.632004,58.0400002 C398.632004,51.8000001 394.504004,47 388.264004,47 C381.992003,47 377.896003,51.8000001 377.896003,58.0400002 C377.896003,64.2800003 381.992003,69.0800003 388.264004,69.0800003 L388.264004,69.0800003 Z M388.264004,67.4160003 C383.112003,67.4160003 379.816003,63.4160002 379.816003,58.0400002 C379.816003,52.6320001 383.112003,48.664 388.264004,48.664 C393.384004,48.664 396.712004,52.6320001 396.712004,58.0400002 C396.712004,63.4160002 393.384004,67.4160003 388.264004,67.4160003 L388.264004,67.4160003 Z M423.112004,68.6960003 L423.112004,47.352 L420.360004,47.352 L413.128004,65.1120003 L405.864004,47.352 L403.144004,47.352 L403.144004,68.6960003 L404.968004,68.6960003 L404.968004,49.656 L412.776004,68.6960003 L413.480004,68.6960003 L421.256004,49.656 L421.256004,68.6960003 L423.112004,68.6960003 Z M164.392,107.08 C168.232,107.08 171.272,105.512 173.448,103.08 L173.448,94.8880001 L163.272,94.8880001 L163.272,98.8560002 L168.904,98.8560002 L168.904,101.416 C168.04,102.216 166.28,103.048 164.392,103.048 C160.488,103.048 157.672,100.072 157.672,96.0400002 C157.672,92.0080001 160.488,89.0320001 164.392,89.0320001 C166.632,89.0320001 168.456,90.3120001 169.448,91.8160001 L173.192,89.7680001 C171.592,87.24 168.808,85 164.392,85 C158.12,85 153,89.2880001 153,96.0400002 C153,102.76 158.12,107.08 164.392,107.08 L164.392,107.08 Z M187.208001,107.08 C193.640001,107.08 198.344001,102.472 198.344001,96.0400002 C198.344001,89.6080001 193.640001,85 187.208001,85 C180.744,85 176.04,89.6080001 176.04,96.0400002 C176.04,102.472 180.744,107.08 187.208001,107.08 L187.208001,107.08 Z M187.208001,103.048 C183.24,103.048 180.712,100.008 180.712,96.0400002 C180.712,92.0400001 183.24,89.0320001 187.208001,89.0320001 C191.144001,89.0320001 193.672001,92.0400001 193.672001,96.0400002 C193.672001,100.008 191.144001,103.048 187.208001,103.048 L187.208001,103.048 Z M211.688001,107.08 C218.120001,107.08 222.824001,102.472 222.824001,96.0400002 C222.824001,89.6080001 218.120001,85 211.688001,85 C205.224001,85 200.520001,89.6080001 200.520001,96.0400002 C200.520001,102.472 205.224001,107.08 211.688001,107.08 L211.688001,107.08 Z M211.688001,103.048 C207.720001,103.048 205.192001,100.008 205.192001,96.0400002 C205.192001,92.0400001 207.720001,89.0320001 211.688001,89.0320001 C215.624001,89.0320001 218.152001,92.0400001 218.152001,96.0400002 C218.152001,100.008 215.624001,103.048 211.688001,103.048 L211.688001,103.048 Z M236.392001,107.08 C240.232001,107.08 243.272001,105.512 245.448001,103.08 L245.448001,94.8880001 L235.272001,94.8880001 L235.272001,98.8560002 L240.904001,98.8560002 L240.904001,101.416 C240.040001,102.216 238.280001,103.048 236.392001,103.048 C232.488001,103.048 229.672001,100.072 229.672001,96.0400002 C229.672001,92.0080001 232.488001,89.0320001 236.392001,89.0320001 C238.632001,89.0320001 240.456001,90.3120001 241.448001,91.8160001 L245.192001,89.7680001 C243.592001,87.24 240.808001,85 236.392001,85 C230.120001,85 225.000001,89.2880001 225.000001,96.0400002 C225.000001,102.76 230.120001,107.08 236.392001,107.08 L236.392001,107.08 Z M262.472002,106.696 L262.472002,102.696 L253.448001,102.696 L253.448001,85.352 L248.872001,85.352 L248.872001,106.696 L262.472002,106.696 Z M280.648002,106.696 L280.648002,102.696 L270.088002,102.696 L270.088002,97.8320002 L280.424002,97.8320002 L280.424002,93.8320001 L270.088002,93.8320001 L270.088002,89.3520001 L280.648002,89.3520001 L280.648002,85.352 L265.544002,85.352 L265.544002,106.696 L280.648002,106.696 Z M296.968002,106.696 L296.968002,99.0800002 L302.408002,99.0800002 C307.016002,99.0800002 309.576002,95.9440002 309.576002,92.2320001 C309.576002,88.4880001 307.048002,85.352 302.408002,85.352 L292.424002,85.352 L292.424002,106.696 L296.968002,106.696 Z M301.768002,95.0800002 L296.968002,95.0800002 L296.968002,89.3520001 L301.768002,89.3520001 C303.560002,89.3520001 304.936002,90.4400001 304.936002,92.2320001 C304.936002,93.9920001 303.560002,95.0800002 301.768002,95.0800002 L301.768002,95.0800002 Z M325.832003,106.696 L325.832003,102.696 L316.808002,102.696 L316.808002,85.352 L312.232002,85.352 L312.232002,106.696 L325.832003,106.696 Z M348.808003,106.696 L340.584003,85.352 L334.888003,85.352 L326.664003,106.696 L331.816003,106.696 L333.160003,103.08 L342.312003,103.08 L343.656003,106.696 L348.808003,106.696 Z M341.064003,99.0800002 L334.408003,99.0800002 L337.736003,89.8960001 L341.064003,99.0800002 Z M361.288003,106.696 L361.288003,97.9600002 L369.448003,85.352 L364.296003,85.352 L359.016003,93.8960001 L353.736003,85.352 L348.552003,85.352 L356.744003,97.9600002 L356.744003,106.696 L361.288003,106.696 Z M387.272003,107.08 C393.000004,107.08 395.816004,104.136 395.816004,100.232 C395.816004,92.2640001 383.560003,94.5360001 383.560003,91.1760001 C383.560003,89.8960001 384.648003,89.0640001 386.568003,89.0640001 C388.744004,89.0640001 391.048004,89.8000001 392.776004,91.4000001 L395.304004,88.008 C393.192004,86.056 390.376004,85.032 386.984003,85.032 C381.960003,85.032 378.888003,87.976 378.888003,91.5280001 C378.888003,99.5600002 391.176004,96.9680002 391.176004,100.68 C391.176004,101.928 389.992004,103.048 387.464003,103.048 C384.520003,103.048 382.184003,101.704 380.680003,100.136 L378.184003,103.688 C380.200003,105.704 383.144003,107.08 387.272003,107.08 L387.272003,107.08 Z M408.360004,106.696 L408.360004,89.3520001 L414.568004,89.3520001 L414.568004,85.352 L397.544004,85.352 L397.544004,89.3520001 L403.784004,89.3520001 L403.784004,106.696 L408.360004,106.696 Z M427.624004,107.08 C434.056004,107.08 438.760004,102.472 438.760004,96.0400002 C438.760004,89.6080001 434.056004,85 427.624004,85 C421.160004,85 416.456004,89.6080001 416.456004,96.0400002 C416.456004,102.472 421.160004,107.08 427.624004,107.08 L427.624004,107.08 Z M427.624004,103.048 C423.656004,103.048 421.128004,100.008 421.128004,96.0400002 C421.128004,92.0400001 423.656004,89.0320001 427.624004,89.0320001 C431.560004,89.0320001 434.088004,92.0400001 434.088004,96.0400002 C434.088004,100.008 431.560004,103.048 427.624004,103.048 L427.624004,103.048 Z M459.272005,106.696 L454.440004,98.5680002 C456.744005,98.0240002 459.144005,95.9760002 459.144005,92.2320001 C459.144005,88.264 456.392005,85.352 451.944004,85.352 L441.960004,85.352 L441.960004,106.696 L446.504004,106.696 L446.504004,99.1120002 L449.832004,99.1120002 L454.024004,106.696 L459.272005,106.696 Z M451.304004,95.1120002 L446.504004,95.1120002 L446.504004,89.3520001 L451.304004,89.3520001 C453.096004,89.3520001 454.472004,90.4400001 454.472004,92.2000001 C454.472004,94.0240001 453.096004,95.1120002 451.304004,95.1120002 L451.304004,95.1120002 Z M477.640005,106.696 L477.640005,102.696 L467.080005,102.696 L467.080005,97.8320002 L477.416005,97.8320002 L477.416005,93.8320001 L467.080005,93.8320001 L467.080005,89.3520001 L477.640005,89.3520001 L477.640005,85.352 L462.536005,85.352 L462.536005,106.696 L477.640005,106.696 Z" id="DOWNLOAD-FROM" fill="#FFFFFF"></path>
        </g>
    </g>
</svg>