<?xml version="1.0" encoding="UTF-8"?>
<svg width="528px" height="154px" viewBox="0 0 528 154" version="1.1" xmlns="http://www.w3.org/2000/svg" xmlns:xlink="http://www.w3.org/1999/xlink">
    <!-- Generator: Sketch 43.2 (39069) - http://www.bohemiancoding.com/sketch -->
    <title>play-store-ru</title>
    <desc>Created with Sketch.</desc>
    <defs>
        <linearGradient x1="47.3811197%" y1="-35.1571758%" x2="51.6420395%" y2="93.5367562%" id="linearGradient-1">
            <stop stop-color="#19A3B4" offset="0%"></stop>
            <stop stop-color="#5BC3AF" offset="34.816763%"></stop>
            <stop stop-color="#C9F7A6" offset="92.2336229%"></stop>
            <stop stop-color="#D7FEA5" offset="100%"></stop>
        </linearGradient>
        <linearGradient x1="32.2529035%" y1="-35.1571758%" x2="61.1274398%" y2="93.5367562%" id="linearGradient-2">
            <stop stop-color="#19A3B4" offset="0%"></stop>
            <stop stop-color="#5BC3AF" offset="34.816763%"></stop>
            <stop stop-color="#C9F7A6" offset="92.2336229%"></stop>
            <stop stop-color="#D7FEA5" offset="100%"></stop>
        </linearGradient>
        <linearGradient x1="10.1366356%" y1="-114.321644%" x2="65.3076872%" y2="114.156353%" id="linearGradient-3">
            <stop stop-color="#FC227C" offset="0%"></stop>
            <stop stop-color="#FEEB7B" offset="100%"></stop>
        </linearGradient>
        <linearGradient x1="48.1413312%" y1="-14.8137139%" x2="49.845844%" y2="82.8944571%" id="linearGradient-4">
            <stop stop-color="#0E4DA0" offset="0%"></stop>
            <stop stop-color="#6BFED4" offset="100%"></stop>
        </linearGradient>
        <linearGradient x1="28.1511582%" y1="31.5405638%" x2="48.1878808%" y2="59.3685903%" id="linearGradient-5">
            <stop stop-color="#0E4DA0" offset="0%"></stop>
            <stop stop-color="#6BFED4" offset="100%"></stop>
        </linearGradient>
        <linearGradient x1="56.9965014%" y1="16.465744%" x2="46.2534169%" y2="126.310354%" id="linearGradient-6">
            <stop stop-color="#FC472E" offset="0%"></stop>
            <stop stop-color="#FC472E" offset="0.331892433%"></stop>
            <stop stop-color="#893CD8" offset="100%"></stop>
        </linearGradient>
        <linearGradient x1="97.4104091%" y1="16.465744%" x2="24.6120204%" y2="126.310354%" id="linearGradient-7">
            <stop stop-color="#FC472E" offset="0%"></stop>
            <stop stop-color="#FC472E" offset="0.331892433%"></stop>
            <stop stop-color="#893CD8" offset="100%"></stop>
        </linearGradient>
    </defs>
    <g id="Page-1" stroke="none" stroke-width="1" fill="none" fill-rule="evenodd">
        <g id="play-store-ru">
            <rect id="Button" fill="#2B2D32" fill-rule="nonzero" x="0" y="0" width="528" height="154" rx="19.2000003"></rect>
            <g id="Icon---Google-Play" transform="translate(47.000000, 42.000000)" fill-rule="nonzero">
                <g id="Fill-1" transform="translate(3.000000, 0.000000)" fill="url(#linearGradient-2)">
                    <path d="M46.112685,24.0931235 L3.32273789,0.720423116 C2.10945026,0.0609989912 0.99041804,-0.092401787 0.08396183,0.188500937 L35.1329334,35.0025087 L46.112685,24.0931235" id="path-2"></path>
                </g>
                <path d="M49.1688372,45.9656838 L63.7764191,37.9868511 C66.7384452,36.3631935 66.7384452,33.7215126 63.7764191,32.1018395 L49.1146904,24.0931235 L38.1329334,35.0025087 L49.1688372,45.9656838" id="Fill-2" fill="url(#linearGradient-3)"></path>
                <g id="Fill-3" fill="url(#linearGradient-5)">
                    <path d="M3.0819564,0.188500937 C1.78042968,0.59292117 0.93814736,1.90180833 0.93814736,3.88207292 L0.946169096,66.2066177 C0.946169096,68.1649679 1.76238077,69.4539328 3.02580424,69.8842519 L38.1329334,35.0084854 L3.0819564,0.188500937" id="path-6"></path>
                </g>
                <g id="Fill-4" transform="translate(3.000000, 35.000000)" fill="url(#linearGradient-7)">
                    <path d="M0.02580424,34.8842519 C0.93827675,35.1910535 2.07936875,35.0476138 3.32273789,34.3702597 L46.1628209,10.9656838 L35.1329334,0.0084854 L0.02580424,34.8842519" id="path-9"></path>
                </g>
            </g>
            <path d="M164.392,107.08 C168.232,107.08 171.272,105.512 173.448,103.08 L173.448,94.8880001 L163.272,94.8880001 L163.272,98.8560002 L168.904,98.8560002 L168.904,101.416 C168.04,102.216 166.28,103.048 164.392,103.048 C160.488,103.048 157.672,100.072 157.672,96.0400002 C157.672,92.0080001 160.488,89.0320001 164.392,89.0320001 C166.632,89.0320001 168.456,90.3120001 169.448,91.8160001 L173.192,89.7680001 C171.592,87.24 168.808,85 164.392,85 C158.12,85 153,89.2880001 153,96.0400002 C153,102.76 158.12,107.08 164.392,107.08 L164.392,107.08 Z M187.208001,107.08 C193.640001,107.08 198.344001,102.472 198.344001,96.0400002 C198.344001,89.6080001 193.640001,85 187.208001,85 C180.744,85 176.04,89.6080001 176.04,96.0400002 C176.04,102.472 180.744,107.08 187.208001,107.08 L187.208001,107.08 Z M187.208001,103.048 C183.24,103.048 180.712,100.008 180.712,96.0400002 C180.712,92.0400001 183.24,89.0320001 187.208001,89.0320001 C191.144001,89.0320001 193.672001,92.0400001 193.672001,96.0400002 C193.672001,100.008 191.144001,103.048 187.208001,103.048 L187.208001,103.048 Z M211.688001,107.08 C218.120001,107.08 222.824001,102.472 222.824001,96.0400002 C222.824001,89.6080001 218.120001,85 211.688001,85 C205.224001,85 200.520001,89.6080001 200.520001,96.0400002 C200.520001,102.472 205.224001,107.08 211.688001,107.08 L211.688001,107.08 Z M211.688001,103.048 C207.720001,103.048 205.192001,100.008 205.192001,96.0400002 C205.192001,92.0400001 207.720001,89.0320001 211.688001,89.0320001 C215.624001,89.0320001 218.152001,92.0400001 218.152001,96.0400002 C218.152001,100.008 215.624001,103.048 211.688001,103.048 L211.688001,103.048 Z M236.392001,107.08 C240.232001,107.08 243.272001,105.512 245.448001,103.08 L245.448001,94.8880001 L235.272001,94.8880001 L235.272001,98.8560002 L240.904001,98.8560002 L240.904001,101.416 C240.040001,102.216 238.280001,103.048 236.392001,103.048 C232.488001,103.048 229.672001,100.072 229.672001,96.0400002 C229.672001,92.0080001 232.488001,89.0320001 236.392001,89.0320001 C238.632001,89.0320001 240.456001,90.3120001 241.448001,91.8160001 L245.192001,89.7680001 C243.592001,87.24 240.808001,85 236.392001,85 C230.120001,85 225.000001,89.2880001 225.000001,96.0400002 C225.000001,102.76 230.120001,107.08 236.392001,107.08 L236.392001,107.08 Z M262.472002,106.696 L262.472002,102.696 L253.448001,102.696 L253.448001,85.352 L248.872001,85.352 L248.872001,106.696 L262.472002,106.696 Z M280.648002,106.696 L280.648002,102.696 L270.088002,102.696 L270.088002,97.8320002 L280.424002,97.8320002 L280.424002,93.8320001 L270.088002,93.8320001 L270.088002,89.3520001 L280.648002,89.3520001 L280.648002,85.352 L265.544002,85.352 L265.544002,106.696 L280.648002,106.696 Z M296.968002,106.696 L296.968002,99.0800002 L302.408002,99.0800002 C307.016002,99.0800002 309.576002,95.9440002 309.576002,92.2320001 C309.576002,88.4880001 307.048002,85.352 302.408002,85.352 L292.424002,85.352 L292.424002,106.696 L296.968002,106.696 Z M301.768002,95.0800002 L296.968002,95.0800002 L296.968002,89.3520001 L301.768002,89.3520001 C303.560002,89.3520001 304.936002,90.4400001 304.936002,92.2320001 C304.936002,93.9920001 303.560002,95.0800002 301.768002,95.0800002 L301.768002,95.0800002 Z M325.832003,106.696 L325.832003,102.696 L316.808002,102.696 L316.808002,85.352 L312.232002,85.352 L312.232002,106.696 L325.832003,106.696 Z M348.808003,106.696 L340.584003,85.352 L334.888003,85.352 L326.664003,106.696 L331.816003,106.696 L333.160003,103.08 L342.312003,103.08 L343.656003,106.696 L348.808003,106.696 Z M341.064003,99.0800002 L334.408003,99.0800002 L337.736003,89.8960001 L341.064003,99.0800002 Z M361.288003,106.696 L361.288003,97.9600002 L369.448003,85.352 L364.296003,85.352 L359.016003,93.8960001 L353.736003,85.352 L348.552003,85.352 L356.744003,97.9600002 L356.744003,106.696 L361.288003,106.696 Z M387.272003,107.08 C393.000004,107.08 395.816004,104.136 395.816004,100.232 C395.816004,92.2640001 383.560003,94.5360001 383.560003,91.1760001 C383.560003,89.8960001 384.648003,89.0640001 386.568003,89.0640001 C388.744004,89.0640001 391.048004,89.8000001 392.776004,91.4000001 L395.304004,88.008 C393.192004,86.056 390.376004,85.032 386.984003,85.032 C381.960003,85.032 378.888003,87.976 378.888003,91.5280001 C378.888003,99.5600002 391.176004,96.9680002 391.176004,100.68 C391.176004,101.928 389.992004,103.048 387.464003,103.048 C384.520003,103.048 382.184003,101.704 380.680003,100.136 L378.184003,103.688 C380.200003,105.704 383.144003,107.08 387.272003,107.08 L387.272003,107.08 Z M408.360004,106.696 L408.360004,89.3520001 L414.568004,89.3520001 L414.568004,85.352 L397.544004,85.352 L397.544004,89.3520001 L403.784004,89.3520001 L403.784004,106.696 L408.360004,106.696 Z M427.624004,107.08 C434.056004,107.08 438.760004,102.472 438.760004,96.0400002 C438.760004,89.6080001 434.056004,85 427.624004,85 C421.160004,85 416.456004,89.6080001 416.456004,96.0400002 C416.456004,102.472 421.160004,107.08 427.624004,107.08 L427.624004,107.08 Z M427.624004,103.048 C423.656004,103.048 421.128004,100.008 421.128004,96.0400002 C421.128004,92.0400001 423.656004,89.0320001 427.624004,89.0320001 C431.560004,89.0320001 434.088004,92.0400001 434.088004,96.0400002 C434.088004,100.008 431.560004,103.048 427.624004,103.048 L427.624004,103.048 Z M459.272005,106.696 L454.440004,98.5680002 C456.744005,98.0240002 459.144005,95.9760002 459.144005,92.2320001 C459.144005,88.264 456.392005,85.352 451.944004,85.352 L441.960004,85.352 L441.960004,106.696 L446.504004,106.696 L446.504004,99.1120002 L449.832004,99.1120002 L454.024004,106.696 L459.272005,106.696 Z M451.304004,95.1120002 L446.504004,95.1120002 L446.504004,89.3520001 L451.304004,89.3520001 C453.096004,89.3520001 454.472004,90.4400001 454.472004,92.2000001 C454.472004,94.0240001 453.096004,95.1120002 451.304004,95.1120002 L451.304004,95.1120002 Z M477.640005,106.696 L477.640005,102.696 L467.080005,102.696 L467.080005,97.8320002 L477.416005,97.8320002 L477.416005,93.8320001 L467.080005,93.8320001 L467.080005,89.3520001 L477.640005,89.3520001 L477.640005,85.352 L462.536005,85.352 L462.536005,106.696 L477.640005,106.696 Z" id="DOWNLOAD-FROM" fill="#FFFFFF" fill-rule="nonzero"></path>
            <path d="M169.797852,61.3496094 C169.55371,63.5957144 168.750495,65.3144472 167.388184,66.5058594 C166.025872,67.6972716 164.211925,68.2929688 161.946289,68.2929688 C160.36425,68.2929688 158.965338,67.8974649 157.749512,67.1064453 C156.533685,66.3154257 155.593753,65.1948315 154.929688,63.7446289 C154.265622,62.2944263 153.928711,60.6367281 153.918945,58.7714844 L153.918945,56.0029297 C153.918945,54.108389 154.250973,52.4287183 154.915039,50.9638672 C155.579105,49.4990161 156.533685,48.3686563 157.778809,47.5727539 C159.023932,46.7768515 160.457023,46.3789062 162.078125,46.3789062 C164.363293,46.3789062 166.167474,46.9965759 167.490723,48.2319336 C168.813971,49.4672913 169.583007,51.1738172 169.797852,53.3515625 L167.981445,53.3515625 C167.532224,49.7284975 165.564471,47.9169922 162.078125,47.9169922 C160.144522,47.9169922 158.60401,48.6396412 157.456543,50.0849609 C156.309076,51.5302807 155.735352,53.527331 155.735352,56.0761719 L155.735352,58.6835938 C155.735352,61.1445436 156.294428,63.1074146 157.412598,64.5722656 C158.530767,66.0371167 160.041983,66.7695312 161.946289,66.7695312 C163.831064,66.7695312 165.251948,66.3178756 166.208984,65.4145508 C167.16602,64.511226 167.756835,63.156259 167.981445,61.3496094 L169.797852,61.3496094 Z M178.982422,57.9951172 L176.052734,57.9951172 L176.052734,68 L174.250977,68 L174.250977,46.671875 L176.052734,46.671875 L176.052734,56.4570312 L178.894531,56.4570312 L187.141602,46.671875 L189.412109,46.671875 L180.652344,57.1601562 L190.056641,68 L187.81543,68 L178.982422,57.9951172 Z M204.851562,62.0234375 L195.168945,62.0234375 L192.97168,68 L191.082031,68 L199.15332,46.671875 L200.867188,46.671875 L208.938477,68 L207.063477,68 L204.851562,62.0234375 Z M195.725586,60.4853516 L204.280273,60.4853516 L200.00293,48.8691406 L195.725586,60.4853516 Z M225.813477,46.671875 L225.813477,68 L223.99707,68 L223.99707,58.3027344 C221.995107,58.8593778 220.071298,59.1376953 218.225586,59.1376953 C215.803699,59.1376953 214.016607,58.6152396 212.864258,57.5703125 C211.711908,56.5253854 211.121094,54.9189562 211.091797,52.7509766 L211.091797,46.671875 L212.908203,46.671875 L212.908203,52.6484375 C212.917969,54.3769618 213.345211,55.6342734 214.189941,56.4204102 C215.034672,57.2065469 216.379874,57.5996094 218.225586,57.5996094 C220.09083,57.5996094 222.014639,57.3212918 223.99707,56.7646484 L223.99707,46.671875 L225.813477,46.671875 Z M242.74707,62.0234375 L233.064453,62.0234375 L230.867188,68 L228.977539,68 L237.048828,46.671875 L238.762695,46.671875 L246.833984,68 L244.958984,68 L242.74707,62.0234375 Z M233.621094,60.4853516 L242.175781,60.4853516 L237.898438,48.8691406 L233.621094,60.4853516 Z M262.551758,48.2099609 L255.242188,48.2099609 L255.242188,68 L253.44043,68 L253.44043,48.2099609 L246.145508,48.2099609 L246.145508,46.671875 L262.551758,46.671875 L262.551758,48.2099609 Z M267.927734,55.9296875 L273.21582,55.9296875 C274.670906,55.9296875 275.930659,56.1713843 276.995117,56.6547852 C278.059576,57.138186 278.872556,57.8315385 279.434082,58.7348633 C279.995608,59.6381881 280.276367,60.705072 280.276367,61.9355469 C280.276367,63.8203219 279.646491,65.3022407 278.386719,66.3813477 C277.126947,67.4604546 275.3838,68 273.157227,68 L266.125977,68 L266.125977,46.671875 L267.927734,46.671875 L267.927734,55.9296875 Z M267.927734,57.4677734 L267.927734,66.4765625 L273.201172,66.4765625 C274.851571,66.4765625 276.14062,66.0688517 277.068359,65.253418 C277.996098,64.4379842 278.459961,63.3222727 278.459961,61.90625 C278.459961,60.558587 278.010747,59.4868204 277.112305,58.690918 C276.213863,57.8950156 274.95411,57.4873048 273.333008,57.4677734 L267.927734,57.4677734 Z M306.980469,61.3496094 C306.736327,63.5957144 305.933112,65.3144472 304.570801,66.5058594 C303.208489,67.6972716 301.394543,68.2929688 299.128906,68.2929688 C297.546867,68.2929688 296.147955,67.8974649 294.932129,67.1064453 C293.716303,66.3154257 292.776371,65.1948315 292.112305,63.7446289 C291.448239,62.2944263 291.111328,60.6367281 291.101562,58.7714844 L291.101562,56.0029297 C291.101562,54.108389 291.43359,52.4287183 292.097656,50.9638672 C292.761722,49.4990161 293.716302,48.3686563 294.961426,47.5727539 C296.206549,46.7768515 297.63964,46.3789062 299.260742,46.3789062 C301.54591,46.3789062 303.350091,46.9965759 304.67334,48.2319336 C305.996589,49.4672913 306.765624,51.1738172 306.980469,53.3515625 L305.164062,53.3515625 C304.714842,49.7284975 302.747088,47.9169922 299.260742,47.9169922 C297.327139,47.9169922 295.786627,48.6396412 294.63916,50.0849609 C293.491693,51.5302807 292.917969,53.527331 292.917969,56.0761719 L292.917969,58.6835938 C292.917969,61.1445436 293.477045,63.1074146 294.595215,64.5722656 C295.713384,66.0371167 297.2246,66.7695312 299.128906,66.7695312 C301.013681,66.7695312 302.434566,66.3178756 303.391602,65.4145508 C304.348638,64.511226 304.939452,63.156259 305.164062,61.3496094 L306.980469,61.3496094 Z" id="СКАЧАТЬ-С" fill="#FFFFFF"></path>
        </g>
    </g>
</svg>