<?xml version="1.0" encoding="UTF-8" standalone="no"?>
<svg width="28px" height="20px" viewBox="0 0 28 20" version="1.1" xmlns="http://www.w3.org/2000/svg" xmlns:xlink="http://www.w3.org/1999/xlink">
    <!-- Generator: Sketch 3.8.2 (29753) - http://www.bohemiancoding.com/sketch -->
    <title>flag</title>
    <desc>Created with Sketch.</desc>
    <defs>
        <rect id="path-1" x="0" y="0" width="28" height="20" rx="2"></rect>
        <rect id="path-3" x="0" y="0" width="12" height="9.33333333"></rect>
        <filter x="-50%" y="-50%" width="200%" height="200%" filterUnits="objectBoundingBox" id="filter-4">
            <feMorphology radius="1" operator="erode" in="SourceAlpha" result="shadowSpreadInner1"></feMorphology>
            <feOffset dx="0" dy="0" in="shadowSpreadInner1" result="shadowOffsetInner1"></feOffset>
            <feComposite in="shadowOffsetInner1" in2="SourceAlpha" operator="arithmetic" k2="-1" k3="1" result="shadowInnerInner1"></feComposite>
            <feColorMatrix values="0 0 0 0 0   0 0 0 0 0   0 0 0 0 0  0 0 0 0.2 0" type="matrix" in="shadowInnerInner1"></feColorMatrix>
        </filter>
        <rect id="path-5" x="0.666666667" y="0.666666667" width="26.6666667" height="18.6666667" rx="1"></rect>
    </defs>
    <g id="Page-1" stroke="none" stroke-width="1" fill="none" fill-rule="evenodd">
        <g id="flag">
            <g id="US">
                <mask id="mask-2" fill="white">
                    <use xlink:href="#path-1"></use>
                </mask>
                <use id="background" fill="#FFFFFF" xlink:href="#path-1"></use>
                <g id="rectangle" mask="url(#mask-2)">
                    <use fill="#435DB0" fill-rule="evenodd" xlink:href="#path-3"></use>
                    <use fill="black" fill-opacity="1" filter="url(#filter-4)" xlink:href="#path-3"></use>
                </g>
                <path d="M1.33333333,1.33333333 L1.33333333,2.66666667 L2.66666667,2.66666667 L2.66666667,1.33333333 L1.33333333,1.33333333 L1.33333333,1.33333333 Z M4,1.33333333 L4,2.66666667 L5.33333333,2.66666667 L5.33333333,1.33333333 L4,1.33333333 L4,1.33333333 Z M6.66666667,1.33333333 L6.66666667,2.66666667 L8,2.66666667 L8,1.33333333 L6.66666667,1.33333333 L6.66666667,1.33333333 Z M9.33333333,1.33333333 L9.33333333,2.66666667 L10.6666667,2.66666667 L10.6666667,1.33333333 L9.33333333,1.33333333 L9.33333333,1.33333333 Z M8,2.66666667 L8,4 L9.33333333,4 L9.33333333,2.66666667 L8,2.66666667 L8,2.66666667 Z M5.33333333,2.66666667 L5.33333333,4 L6.66666667,4 L6.66666667,2.66666667 L5.33333333,2.66666667 L5.33333333,2.66666667 Z M2.66666667,2.66666667 L2.66666667,4 L4,4 L4,2.66666667 L2.66666667,2.66666667 L2.66666667,2.66666667 Z M1.33333333,4 L1.33333333,5.33333333 L2.66666667,5.33333333 L2.66666667,4 L1.33333333,4 L1.33333333,4 Z M4,4 L4,5.33333333 L5.33333333,5.33333333 L5.33333333,4 L4,4 L4,4 Z M6.66666667,4 L6.66666667,5.33333333 L8,5.33333333 L8,4 L6.66666667,4 L6.66666667,4 Z M9.33333333,4 L9.33333333,5.33333333 L10.6666667,5.33333333 L10.6666667,4 L9.33333333,4 L9.33333333,4 Z M1.33333333,6.66666667 L1.33333333,8 L2.66666667,8 L2.66666667,6.66666667 L1.33333333,6.66666667 L1.33333333,6.66666667 Z M4,6.66666667 L4,8 L5.33333333,8 L5.33333333,6.66666667 L4,6.66666667 L4,6.66666667 Z M6.66666667,6.66666667 L6.66666667,8 L8,8 L8,6.66666667 L6.66666667,6.66666667 L6.66666667,6.66666667 Z M9.33333333,6.66666667 L9.33333333,8 L10.6666667,8 L10.6666667,6.66666667 L9.33333333,6.66666667 L9.33333333,6.66666667 Z M8,5.33333333 L8,6.66666667 L9.33333333,6.66666667 L9.33333333,5.33333333 L8,5.33333333 L8,5.33333333 Z M5.33333333,5.33333333 L5.33333333,6.66666667 L6.66666667,6.66666667 L6.66666667,5.33333333 L5.33333333,5.33333333 L5.33333333,5.33333333 Z M2.66666667,5.33333333 L2.66666667,6.66666667 L4,6.66666667 L4,5.33333333 L2.66666667,5.33333333 L2.66666667,5.33333333 Z" id="stars" fill="#A7B6E7" mask="url(#mask-2)"></path>
                <path d="M12,0 L12,1.33333333 L28,1.33333333 L28,0 L12,0 L12,0 Z M12,2.66666667 L12,4 L28,4 L28,2.66666667 L12,2.66666667 L12,2.66666667 Z M12,5.33333333 L12,6.66666667 L28,6.66666667 L28,5.33333333 L12,5.33333333 L12,5.33333333 Z M12,8 L12,9.33333333 L28,9.33333333 L28,8 L12,8 L12,8 Z M0,10.6666667 L0,12 L28,12 L28,10.6666667 L0,10.6666667 L0,10.6666667 Z M0,13.3333333 L0,14.6666667 L28,14.6666667 L28,13.3333333 L0,13.3333333 L0,13.3333333 Z M0,16 L0,17.3333333 L28,17.3333333 L28,16 L0,16 L0,16 Z M0,18.6666667 L0,20 L28,20 L28,18.6666667 L0,18.6666667 L0,18.6666667 Z" id="stripe" fill="#ED4C49" mask="url(#mask-2)"></path>
                <mask id="mask-6" fill="white">
                    <use xlink:href="#path-5"></use>
                </mask>
                <use id="overlay" stroke-opacity="0.156646286" stroke="#2F343A" xlink:href="#path-5"></use>
            </g>
        </g>
    </g>
</svg>